name C:/MyDriveSym/Projects/mobilecap/Data\Session20210827_0002\mocap\ForceDataProcessed\walking2_forces.mot
datacolumns 19
datarows 22
range 0.98200000 0.99250000
endheader 
time	R_ground_force_vx	R_ground_force_vy	R_ground_force_vz	R_ground_force_px	R_ground_force_py	R_ground_force_pz	R_ground_torque_x	R_ground_torque_y	R_ground_torque_z	L_ground_force_vx	L_ground_force_vy	L_ground_force_vz	L_ground_force_px	L_ground_force_py	L_ground_force_pz	L_ground_torque_x	L_ground_torque_y	L_ground_torque_z	
          0.98200000	          0.00000000	          0.00000000	          0.00000000	          1.14553700	          0.00000000	         -0.15587500	          0.00000000	          0.00000000	          0.00000000	         14.31998900	        558.07608600	         22.79163500	          0.96970600	          0.00600000	         -0.26778900	          0.00000000	          3.52073200	          0.00000000	
          0.98250000	          0.00000000	          0.00000000	          0.00000000	          1.14700100	          0.00000000	         -0.15590000	          0.00000000	          0.00000000	          0.00000000	         14.61804500	        558.66863900	         22.82540500	          0.96981100	          0.00600000	         -0.26778200	          0.00000000	          3.53013700	          0.00000000	
          0.98300000	          0.00000000	          0.00000000	          0.00000000	          1.14846500	          0.00000000	         -0.15592500	          0.00000000	          0.00000000	          0.00000000	         14.91725400	        559.26299900	         22.85939200	          0.96991500	          0.00600000	         -0.26777500	          0.00000000	          3.53950500	          0.00000000	
          0.98350000	          0.00000000	          0.00000000	          0.00000000	          1.14992900	          0.00000000	         -0.15595000	          0.00000000	          0.00000000	          0.00000000	         15.21761400	        559.85911800	         22.89359200	          0.97001900	          0.00600000	         -0.26776800	          0.00000000	          3.54883700	          0.00000000	
          0.98400000	          0.00000000	          0.00000000	          0.00000000	          1.15139300	          0.00000000	         -0.15597500	          0.00000000	          0.00000000	          0.00000000	         15.51912400	        560.45695100	         22.92800000	          0.97012200	          0.00600000	         -0.26776200	          0.00000000	          3.55813200	          0.00000000	
          0.98450000	          0.00000000	          0.00000000	          0.00000000	          1.15285700	          0.00000000	         -0.15600100	          0.00000000	          0.00000000	          0.00000000	         15.82178100	        561.05645000	         22.96261000	          0.97022500	          0.00600000	         -0.26775500	          0.00000000	          3.56738800	          0.00000000	
          0.98500000	          0.00000000	          0.00000000	          0.00000000	          1.15432000	          0.00000000	         -0.15602600	          0.00000000	          0.00000000	          0.00000000	         16.12558400	        561.65756800	         22.99741900	          0.97032800	          0.00600000	         -0.26774800	          0.00000000	          3.57660600	          0.00000000	
          0.98550000	          0.00000000	          0.00000000	          0.00000000	          1.15578400	          0.00000000	         -0.15605100	          0.00000000	          0.00000000	          0.00000000	         16.43053100	        562.26025700	         23.03242000	          0.97043000	          0.00600000	         -0.26774200	          0.00000000	          3.58578500	          0.00000000	
          0.98600000	          0.00000000	          0.00000000	          0.00000000	          1.15724800	          0.00000000	         -0.15607600	          0.00000000	          0.00000000	          0.00000000	         16.73661800	        562.86446800	         23.06760900	          0.97053100	          0.00600000	         -0.26773500	          0.00000000	          3.59492400	          0.00000000	
          0.98650000	          0.00000000	          0.00000000	          0.00000000	          1.15871200	          0.00000000	         -0.15610100	          0.00000000	          0.00000000	          0.00000000	         17.04384400	        563.47015300	         23.10298100	          0.97063200	          0.00600000	         -0.26772900	          0.00000000	          3.60402300	          0.00000000	
          0.98700000	          0.00000000	          0.00000000	          0.00000000	          1.16017600	          0.00000000	         -0.15612600	          0.00000000	          0.00000000	          0.00000000	         17.35220600	        564.07726400	         23.13853000	          0.97073300	          0.00600000	         -0.26772300	          0.00000000	          3.61308000	          0.00000000	
          0.98750000	          0.00000000	          0.00000000	          0.00000000	          1.16164000	          0.00000000	         -0.15615200	          0.00000000	          0.00000000	          0.00000000	         17.66170100	        564.68575000	         23.17425100	          0.97083300	          0.00600000	         -0.26771700	          0.00000000	          3.62209600	          0.00000000	
          0.98800000	          0.00000000	          0.00000000	          0.00000000	          1.16310400	          0.00000000	         -0.15617700	          0.00000000	          0.00000000	          0.00000000	         17.97232500	        565.29556200	         23.21013800	          0.97093300	          0.00600000	         -0.26771100	          0.00000000	          3.63106900	          0.00000000	
          0.98850000	          0.00000000	          0.00000000	          0.00000000	          1.16456800	          0.00000000	         -0.15620200	          0.00000000	          0.00000000	          0.00000000	         18.28407700	        565.90664800	         23.24618700	          0.97103200	          0.00600000	         -0.26770500	          0.00000000	          3.63999900	          0.00000000	
          0.98900000	          0.00000000	          0.00000000	          0.00000000	          1.16603200	          0.00000000	         -0.15622700	          0.00000000	          0.00000000	          0.00000000	         18.59695200	        566.51896000	         23.28239200	          0.97113100	          0.00600000	         -0.26769900	          0.00000000	          3.64888500	          0.00000000	
          0.98950000	          0.00000000	          0.00000000	          0.00000000	          1.16749600	          0.00000000	         -0.15625200	          0.00000000	          0.00000000	          0.00000000	         18.91094700	        567.13244400	         23.31874600	          0.97122900	          0.00600000	         -0.26769300	          0.00000000	          3.65772700	          0.00000000	
          0.99000000	          0.00000000	          0.00000000	          0.00000000	          1.16896000	          0.00000000	         -0.15627800	          0.00000000	          0.00000000	          0.00000000	         19.22605800	        567.74705100	         23.35524500	          0.97132700	          0.00600000	         -0.26768800	          0.00000000	          3.66652300	          0.00000000	
          0.99050000	          0.00000000	          0.00000000	          0.00000000	          1.17042400	          0.00000000	         -0.15630300	          0.00000000	          0.00000000	          0.00000000	         19.54228200	        568.36272700	         23.39188300	          0.97142500	          0.00600000	         -0.26768200	          0.00000000	          3.67527400	          0.00000000	
          0.99100000	          0.00000000	          0.00000000	          0.00000000	          1.17188800	          0.00000000	         -0.15632800	          0.00000000	          0.00000000	          0.00000000	         19.85961500	        568.97942100	         23.42865300	          0.97152200	          0.00600000	         -0.26767600	          0.00000000	          3.68397900	          0.00000000	
          0.99150000	          0.00000000	          0.00000000	          0.00000000	          1.17335200	          0.00000000	         -0.15635300	          0.00000000	          0.00000000	          0.00000000	         20.17805200	        569.59707900	         23.46555000	          0.97161800	          0.00600000	         -0.26767100	          0.00000000	          3.69263700	          0.00000000	
          0.99200000	          0.00000000	          0.00000000	          0.00000000	          1.17481600	          0.00000000	         -0.15637800	          0.00000000	          0.00000000	          0.00000000	         20.49758900	        570.21564900	         23.50256800	          0.97171500	          0.00600000	         -0.26766600	          0.00000000	          3.70124600	          0.00000000	
          0.99250000	          0.00000000	          0.00000000	          0.00000000	          1.17628000	          0.00000000	         -0.15640300	          0.00000000	          0.00000000	          0.00000000	         20.81822100	        570.83507500	         23.53970100	          0.97181100	          0.00600000	         -0.26766100	          0.00000000	          3.70980800	          0.00000000	
